<svg width="170" height="33" viewBox="0 0 170 33" fill="none" xmlns="http://www.w3.org/2000/svg">
<path d="M21.1107 23.2889H12.2599C11.8619 23.2889 11.5605 23.6332 11.6087 24.0249L12.6337 32.3589C12.6819 32.6913 12.4166 32.9881 12.079 32.9881H6.90591C3.08339 32.9881 -0.015625 29.9133 -0.015625 26.1144V9.87376C-0.00356658 6.07479 3.09545 3 6.90591 3H16.6853C17.047 3 17.3364 3.28492 17.3364 3.64108V12.2244C17.3364 12.5805 17.6258 12.8655 17.9755 12.8655H21.0987C21.3881 12.8655 21.6172 13.091 21.6172 13.3878V22.7784C21.6172 23.0633 21.3881 23.3008 21.0987 23.3008L21.1107 23.2889Z" fill="url(#paint0_linear_2001_345)"/>
<path d="M15.4605 33H25.4087C27.9892 33 29.9668 32.3233 31.3535 30.9818C32.7282 29.6403 33.4155 27.6696 33.4155 25.0815V3.93787C33.4155 3.41551 32.9934 3 32.4629 3H20.2115C19.8498 3 19.5604 3.29679 19.5604 3.65295V10.0993C19.5604 10.4199 19.8136 10.6692 20.1392 10.6692H23.0332C23.4793 10.6692 23.8532 11.0372 23.8532 11.4765V23.8587C23.8532 24.2742 23.6964 24.6304 23.3829 24.9153C23.1055 25.1765 22.4303 25.2952 21.3691 25.2952H14.5802C14.2305 25.2952 13.9653 25.6039 14.0135 25.9363L14.8938 32.4658C14.9299 32.7507 15.1832 32.9644 15.4726 32.9644L15.4605 33Z" fill="url(#paint1_linear_2001_345)"/>
<path d="M61.9212 6.12109C63.5491 6.12109 64.6705 7.30827 64.6705 8.7685C64.6705 10.2287 63.537 11.4159 61.9212 11.4159C60.3054 11.4159 59.1719 10.1694 59.1719 8.7685C59.1719 7.36763 60.3054 6.12109 61.9212 6.12109ZM59.4613 12.2588H64.3811V27.0985H59.4613V12.2707V12.2588Z" fill="white"/>
<path d="M72.8281 11.8439C74.456 11.8439 75.5533 12.4137 76.2768 12.9836C76.7109 13.3279 77.0606 13.6959 77.3259 14.1233H77.6153V12.2713H82.5472V28.3576C82.5472 30.6607 80.654 32.5246 78.3147 32.5246H68.2097V28.405H76.7592C77.2415 28.405 77.6274 28.0251 77.6274 27.5503V24.8198H77.338C77.0727 25.2234 76.7351 25.5914 76.2889 25.9001C75.5654 26.4462 74.4681 26.9567 72.8402 26.9567C69.2468 26.9567 66.1719 23.965 66.1719 19.3944C66.1719 14.8237 69.2468 11.832 72.8402 11.832L72.8281 11.8439ZM74.4198 22.8253C76.301 22.8253 77.6033 21.5669 77.6033 19.4062C77.6033 17.2456 76.301 15.9872 74.4198 15.9872C72.5387 15.9872 71.2364 17.2456 71.2364 19.4062C71.2364 21.5669 72.5387 22.8253 74.4198 22.8253Z" fill="white"/>
<path d="M89.1627 22.2553C89.2471 22.564 89.428 22.8252 89.6571 23.0507C90.0912 23.4781 90.7544 23.8224 91.912 23.8224C93.3952 23.8224 93.9378 23.395 93.9378 22.8252C93.9378 22.1722 92.9249 21.8517 91.6226 21.543C88.9577 20.9494 84.9543 20.1777 84.9543 16.4025C84.9543 14.0638 87.1007 11.8438 91.4779 11.8438C94.7819 11.8438 96.5183 13.1259 97.6157 14.3487C98.2306 15.0966 98.6286 15.9158 98.8577 16.8299H94.0825C93.9981 16.5687 93.8776 16.3194 93.6726 16.1176C93.359 15.7733 92.7682 15.4053 91.7553 15.4053C90.5977 15.4053 90.0189 15.8327 90.0189 16.4025C90.0189 17.0911 91.0076 17.376 92.3702 17.6253C95.011 18.2189 99.0024 18.8837 99.0024 22.6708C99.0024 25.2351 96.6872 27.5264 91.9 27.5264C88.4754 27.5264 86.5701 26.1849 85.4969 24.9027C84.8579 24.131 84.4237 23.2525 84.2188 22.2553H89.1507H89.1627Z" fill="white"/>
<path d="M106.965 11.8438C108.472 11.8438 109.57 12.473 110.354 13.0665C110.788 13.4108 111.162 13.8026 111.451 14.2656H111.74V12.2711H116.672V27.1109H111.74V25.1164H111.451C111.162 25.6031 110.788 26.0068 110.354 26.3392C109.57 26.9328 108.472 27.5382 106.965 27.5382C103.372 27.5382 100.297 24.5703 100.297 19.691C100.297 14.8117 103.372 11.8438 106.965 11.8438ZM108.557 23.395C110.438 23.395 111.74 22.1128 111.74 19.691C111.74 17.2692 110.438 15.987 108.557 15.987C106.676 15.987 105.373 17.2692 105.373 19.691C105.373 22.1128 106.676 23.395 108.557 23.395Z" fill="white"/>
<path d="M123.022 12.2715L124.758 21.9707H125.192L127.074 12.2715H132.874L134.755 21.9707H135.189L136.925 12.2715H141.99L138.951 27.1112H131.993L130.112 17.412H129.823L127.942 27.1112H120.984L117.945 12.2715H123.022Z" fill="white"/>
<path d="M46.6106 27.1589L45.875 22.6595H50.5296C51.2892 22.6595 51.7595 22.5764 51.9524 22.3983C52.1695 22.2084 52.278 21.9709 52.278 21.686V11.4288H48.8775V6.95312H57.439V21.8285C57.439 23.5736 56.9567 24.9033 55.98 25.8055C55.0032 26.7078 53.6044 27.1589 51.7836 27.1589H46.5985H46.6106Z" fill="white"/>
<path d="M150.968 0.159975L148.872 12H147.416L149.512 0.159975H150.968Z" fill="white"/>
<path d="M153.898 1.80797C153.663 1.80797 153.466 1.73331 153.306 1.58397C153.156 1.42397 153.082 1.22664 153.082 0.991975C153.082 0.671975 153.199 0.399975 153.434 0.175975C153.668 -0.058692 153.94 -0.176025 154.25 -0.176025C154.495 -0.176025 154.692 -0.101359 154.842 0.0479746C154.991 0.197308 155.066 0.394641 155.066 0.639975C155.066 0.959975 154.948 1.23731 154.714 1.47197C154.479 1.69597 154.207 1.80797 153.898 1.80797ZM154.362 3.23197L152.81 12H151.354L152.906 3.23197H154.362Z" fill="white"/>
<path d="M157.499 9.59998C157.467 9.75998 157.451 9.89864 157.451 10.016C157.451 10.2826 157.531 10.4746 157.691 10.592C157.862 10.7093 158.134 10.768 158.507 10.768H159.579L159.355 12H158.043C157.35 12 156.827 11.8666 156.475 11.6C156.134 11.3333 155.963 10.896 155.963 10.288C155.963 10.0533 155.984 9.82398 156.027 9.59998L156.939 4.43197H155.819L156.027 3.23197H157.163L157.547 1.02397H159.019L158.635 3.23197H160.907L160.699 4.43197H158.411L157.499 9.59998Z" fill="white"/>
<path d="M166.479 3.08797C167.215 3.08797 167.85 3.23197 168.383 3.51997C168.927 3.79731 169.338 4.19197 169.615 4.70397C169.903 5.20531 170.047 5.78131 170.047 6.43197C170.047 6.65597 170.02 6.92797 169.967 7.24797C169.924 7.52531 169.855 7.81331 169.759 8.11197H162.751C162.73 8.32531 162.719 8.47998 162.719 8.57598C162.719 9.31198 162.938 9.88798 163.375 10.304C163.823 10.7093 164.404 10.912 165.119 10.912C165.748 10.912 166.298 10.768 166.767 10.48C167.247 10.1813 167.61 9.78664 167.855 9.29597H169.423C169.039 10.1386 168.447 10.8266 167.647 11.36C166.858 11.8826 165.94 12.144 164.895 12.144C163.796 12.144 162.911 11.8293 162.239 11.2C161.578 10.56 161.247 9.69064 161.247 8.59198C161.247 8.28264 161.279 7.95198 161.343 7.59998C161.503 6.69331 161.828 5.89864 162.319 5.21597C162.81 4.53331 163.412 4.01064 164.127 3.64797C164.852 3.27464 165.636 3.08797 166.479 3.08797ZM168.495 7.05597C168.527 6.84264 168.543 6.64531 168.543 6.46397C168.543 5.78131 168.324 5.25331 167.887 4.87997C167.46 4.50664 166.9 4.31997 166.207 4.31997C165.46 4.31997 164.783 4.56531 164.175 5.05597C163.567 5.53597 163.156 6.20264 162.943 7.05597H168.495Z" fill="white"/>
<defs>
<linearGradient id="paint0_linear_2001_345" x1="-0.00356658" y1="17.9941" x2="21.6292" y2="17.9941" gradientUnits="userSpaceOnUse">
<stop stop-color="#0066FF"/>
<stop offset="1" stop-color="#E3EBFF"/>
</linearGradient>
<linearGradient id="paint1_linear_2001_345" x1="14.0014" y1="17.9941" x2="33.4155" y2="17.9941" gradientUnits="userSpaceOnUse">
<stop stop-color="white"/>
<stop offset="1" stop-color="#E3E7FF"/>
</linearGradient>
</defs>
</svg>
